# xmcd
#
# Track frame offsets:
#	150
#	20429
#	39764
#	66120
#	81563
#
# Disc length: 1276 seconds
#
# Revision: 0
# Processed by: cddbd v1.5.2PL0 Copyright (c) Steve Scherf et al.
# Submitted via: audiograbber 1.83.01
#
DISCID=3604fa05
DTITLE=Gabe Soriano - Demo 2005
DYEAR=2005
DGENRE=Funky Blues
TTITLE0=Rusty Truck
TTITLE1=Plastic Smiles
TTITLE2=On the Crossfire
TTITLE3=Sticky Whiskey
TTITLE4=Back Home
EXTD=
EXTT0=
EXTT1=
EXTT2=
EXTT3=
EXTT4=
PLAYORDER=
